<svg xmlns="http://www.w3.org/2000/svg" viewBox="0 0 100 100">
  <rect width="100" height="100" rx="20" fill="#FF6B35"/>
  <g transform="translate(15, 8) scale(0.5)">
    <defs>
      <style>.logo-body{fill:#fff}.logo-shadow{fill:#cecdd1}.logo-helmet-band{fill:#FF6B35}</style>
    </defs>
    <g id="i-body"><path class="logo-body" d="M85.32,142.54c-2.41.32-5.05.57-7.21.96-8.54,1.56-33.88,6.95-43.99,9.8-12.24,3.46-13.3,11.97-14.1,17.56-.8,5.59,1.41,17.88,11.17,17.88,8.54,0,8.25,10.59,8.25,10.59,0,0,.14,68.63,0,84.86-.16,17.89-10.64,17.82-10.64,17.82,0,0-7.71,0-7.71,12.24,0,13.39,14.1,13.03,14.1,13.03h85.12c10.91,0,11.7-14.63,11.7-14.63,0,0,1.6-13.83-10.64-13.83-8.78,0-8.25-15.69-8.25-15.69v-112.79s1.05-15.65-4.69-20.55c-7.08-6.86-15.9-8.21-23.11-7.24Z"/></g>
    <path class="logo-helmet-band" d="M.66,106c.84,4.08,18.82,3.64,28.44,2.78,44.27-4.52,100.5-34,107.13-40.41,2.2-2.13,2.98-3.92,2.8-5.49,0,0-22.99-6.11-65.67,3.07-25.04,4.53-39.22,19.55-39.22,19.55,0,0-23.43,24.08-33.47,20.51"/>
    <g id="i-head"><circle class="logo-body" cx="71.97" cy="86.29" r="47.78"/></g>
    <g id="i-helmet"><path class="logo-body" d="M.66,106s-1.06-3.33,2.22-6.38c4.51-4.19-.15-23.54-.15-23.54-1.07-4.54-1.64-9.28-1.64-14.14C1.09,28.01,28.6.5,62.53.5c28.39,0,52.29,19.26,59.33,45.43,0,0,.69,6.19,7.75,9.4,4.72,2.14,9.06,4.39,9.43,7.55,0,0-22.99-6.11-65.67,3.07-25.04,4.53-39.22,19.55-39.22,19.55,0,0-23.43,24.08-33.47,20.51Z"/><path class="logo-helmet-band" d="M.66,106c10.04,3.58,33.47-20.51,33.47-20.51,0,0,14.19-15.02,39.22-19.55,42.68-9.18,65.67-3.07,65.67-3.07.14,1.18-.2,2.38-1.34,3.86l-.02.03c-5.59-1.12-27.75-4.42-64.31,3.45-25.04,4.53-39.22,19.55-39.22,19.55,0,0-13.82,14.38-24.79,19.32,0,0-8.43-.46-8.68-3.09Z"/></g>
  </g>
</svg>
